<svg width="192" height="184" viewBox="0 0 192 184" fill="none" xmlns="http://www.w3.org/2000/svg">
<path d="M85.0886 151H14.1425C9.09326 151 5 146.907 5 141.857V57.7975C5 54.789 6.48014 51.973 8.95821 50.267L72.7449 6.35352C75.7897 4.25737 79.7972 4.20099 82.8997 6.21067L150.948 50.2895C153.55 51.9747 155.12 54.8632 155.12 57.9629V66.1572" stroke="black" stroke-width="9.14254" stroke-linecap="round"/>
<g clip-path="url(#clip0_59_139)">
<g filter="url(#filter0_d_59_139)">
<path fill-rule="evenodd" clip-rule="evenodd" d="M130.697 98.1606C122.609 89.5619 109.601 89.5619 101.513 98.1606C93.2989 106.894 93.2989 121.148 101.513 129.882L139.451 170.217L177.388 129.882C185.602 121.148 185.602 106.894 177.388 98.1606C169.3 89.5619 156.292 89.5619 148.204 98.1606L142.368 104.366C141.61 105.171 140.555 105.628 139.451 105.628C138.346 105.628 137.291 105.171 136.533 104.366L130.697 98.1606ZM95.6788 92.6499C106.931 80.6861 125.279 80.6861 136.532 92.6499L139.451 95.7534L142.37 92.6499C153.622 80.6861 171.97 80.6861 183.222 92.6499C194.348 104.479 194.348 123.564 183.222 135.392L142.368 178.829C141.61 179.635 140.555 180.091 139.451 180.091C138.346 180.091 137.291 179.635 136.533 178.829L95.6788 135.392C84.5534 123.564 84.5534 104.479 95.6788 92.6499Z" fill="#D35353"/>
</g>
</g>
<defs>
<filter id="filter0_d_59_139" x="83.3347" y="83.6771" width="112.232" height="104.414" filterUnits="userSpaceOnUse" color-interpolation-filters="sRGB">
<feFlood flood-opacity="0" result="BackgroundImageFix"/>
<feColorMatrix in="SourceAlpha" type="matrix" values="0 0 0 0 0 0 0 0 0 0 0 0 0 0 0 0 0 0 127 0" result="hardAlpha"/>
<feOffset dy="4"/>
<feGaussianBlur stdDeviation="2"/>
<feComposite in2="hardAlpha" operator="out"/>
<feColorMatrix type="matrix" values="0 0 0 0 0 0 0 0 0 0 0 0 0 0 0 0 0 0 0.25 0"/>
<feBlend mode="normal" in2="BackgroundImageFix" result="effect1_dropShadow_59_139"/>
<feBlend mode="normal" in="SourceGraphic" in2="effect1_dropShadow_59_139" result="shape"/>
</filter>
<clipPath id="clip0_59_139">
<rect width="104.232" height="104.232" fill="white" transform="translate(87.3347 79.7684)"/>
</clipPath>
</defs>
</svg>
