<svg width="192" height="184" viewBox="0 0 192 184" fill="none" xmlns="http://www.w3.org/2000/svg">
<path d="M84.8452 151H13.8991C8.84985 151 4.75659 146.907 4.75659 141.857V57.7975C4.75659 54.789 6.23673 51.973 8.7148 50.267L72.5015 6.35352C75.5463 4.25737 79.5538 4.20099 82.6563 6.21067L150.705 50.2895C153.307 51.9747 154.877 54.8632 154.877 57.9629V66.1572" stroke="black" stroke-width="9.14254" stroke-linecap="round"/>
<g clip-path="url(#clip0_59_138)">
<path fill-rule="evenodd" clip-rule="evenodd" d="M130.453 98.1606C122.366 89.5619 109.358 89.5619 101.27 98.1606C93.0555 106.894 93.0555 121.148 101.27 129.882L139.207 170.217L177.144 129.882C185.359 121.148 185.359 106.894 177.144 98.1606C169.057 89.5619 156.048 89.5619 147.961 98.1606L142.124 104.366C141.367 105.171 140.312 105.628 139.207 105.628C138.103 105.628 137.047 105.171 136.29 104.366L130.453 98.1606ZM95.4353 92.6499C106.688 80.6861 125.036 80.6861 136.288 92.6499L139.207 95.7534L142.126 92.6499C153.379 80.6861 171.726 80.6861 182.979 92.6499C194.104 104.479 194.104 123.564 182.979 135.392L142.124 178.829C141.367 179.635 140.312 180.091 139.207 180.091C138.103 180.091 137.047 179.635 136.29 178.829L95.4353 135.392C84.31 123.564 84.31 104.479 95.4353 92.6499Z" fill="black"/>
</g>
<defs>
<clipPath id="clip0_59_138">
<rect width="104.232" height="104.232" fill="white" transform="translate(87.0913 79.7684)"/>
</clipPath>
</defs>
</svg>
