<svg width="192" height="221" viewBox="0 0 192 221" fill="none" xmlns="http://www.w3.org/2000/svg">
<path d="M17 164.867V84.1027C17 82.4274 17.6655 80.8207 18.8501 79.636L94.0196 4.46662C96.4864 1.99977 100.486 1.99978 102.953 4.46662L138.869 40.3824C141.335 42.8492 141.335 46.8488 138.869 49.3156L82.0177 106.166C80.8331 107.351 80.1676 108.958 80.1676 110.633V164.867C80.1676 168.356 77.3395 171.184 73.8508 171.184H23.3168C19.8281 171.184 17 168.356 17 164.867Z" fill="#021933"/>
<circle cx="143.335" cy="139.916" r="31.5838" fill="#021933"/>
<path d="M9.36 199.884L0.36 183.36H6.876L11.34 192C11.772 192.828 12.06 193.476 12.348 194.16C12.672 193.512 12.96 192.828 13.392 191.964L17.856 183.36H24.192L15.192 199.884V210H9.36V199.884ZM21.6824 200.964C21.6824 195.276 25.8584 191.46 31.6184 191.46C37.3424 191.46 41.5184 195.276 41.5184 200.964C41.5184 206.652 37.3424 210.432 31.6184 210.432C25.8584 210.432 21.6824 206.652 21.6824 200.964ZM27.2624 200.928C27.2624 203.664 29.0264 205.464 31.6184 205.464C34.1744 205.464 35.9384 203.664 35.9384 200.928C35.9384 198.228 34.1744 196.428 31.6184 196.428C29.0264 196.428 27.2624 198.228 27.2624 200.928ZM56.2627 192H61.8067V210H56.5867L56.2267 207.984C55.1107 209.46 52.8787 210.468 50.7187 210.468C46.6147 210.468 44.0947 207.732 44.0947 203.304V192H49.6387V201.288C49.6387 204.24 50.6467 205.536 52.9147 205.536C55.2907 205.536 56.2627 204.312 56.2627 201.36V192ZM78.3509 192V197.22H76.5869C73.4189 197.22 71.5109 198.624 71.5109 202.188V210H65.9669V192.036H71.1869L71.4749 194.7C72.2309 192.936 73.8149 191.748 76.2269 191.748C76.8749 191.748 77.5949 191.82 78.3509 192ZM97.1978 210H91.3658V183.36H97.1978V193.872H107.494V183.36H113.326V210H107.494V199.272H97.1978V210ZM117.202 200.964C117.202 195.276 121.378 191.46 127.138 191.46C132.862 191.46 137.038 195.276 137.038 200.964C137.038 206.652 132.862 210.432 127.138 210.432C121.378 210.432 117.202 206.652 117.202 200.964ZM122.782 200.928C122.782 203.664 124.546 205.464 127.138 205.464C129.694 205.464 131.458 203.664 131.458 200.928C131.458 198.228 129.694 196.428 127.138 196.428C124.546 196.428 122.782 198.228 122.782 200.928ZM145.796 210H140.252V192H145.436L145.796 193.872C146.696 192.612 148.46 191.424 151.052 191.424C153.752 191.424 155.48 192.684 156.524 194.592C157.46 192.684 159.584 191.424 162.176 191.424C166.82 191.424 169.124 194.124 169.124 198.228V210H163.58V199.776C163.58 197.508 162.392 196.428 160.628 196.428C159.044 196.428 157.46 197.292 157.46 200.352V210H151.916V199.776C151.916 197.544 150.764 196.464 149 196.464C147.416 196.464 145.796 197.328 145.796 200.352V210ZM181.44 210.468C176.004 210.468 172.116 206.508 172.116 200.964C172.116 195.348 175.896 191.424 181.332 191.424C186.984 191.424 190.512 195.132 190.512 201V202.404L177.444 202.476C177.768 204.852 179.1 205.968 181.548 205.968C183.636 205.968 185.112 205.212 185.508 203.916H190.584C189.936 207.912 186.372 210.468 181.44 210.468ZM181.368 195.924C179.172 195.924 177.948 196.896 177.516 199.056H185.004C185.004 197.148 183.6 195.924 181.368 195.924Z" fill="#021933"/>
</svg>
